<?xml version="1.0" standalone="no"?>
<!DOCTYPE svg PUBLIC "-//W3C//DTD SVG 1.1//EN" "http://www.w3.org/Graphics/SVG/1.1/DTD/svg11.dtd">
<svg width="106px" height="107px" viewBox="116 -2 106 107" version="1.1" xmlns="http://www.w3.org/2000/svg" xmlns:xlink="http://www.w3.org/1999/xlink">
    <defs>
        <filter x="-50%" y="-50%" width="200%" height="200%" filterUnits="objectBoundingBox" id="filter-1">
            <feOffset dx="1" dy="2" in="SourceAlpha" result="shadowOffsetOuter1"></feOffset>
            <feGaussianBlur stdDeviation="1.5" in="shadowOffsetOuter1" result="shadowBlurOuter1"></feGaussianBlur>
            <feColorMatrix values="0 0 0 0 0   0 0 0 0 0   0 0 0 0 0  0 0 0 0.5 0" type="matrix" in="shadowBlurOuter1" result="shadowMatrixOuter1"></feColorMatrix>
            <feMerge>
                <feMergeNode in="shadowMatrixOuter1"></feMergeNode>
                <feMergeNode in="SourceGraphic"></feMergeNode>
            </feMerge>
        </filter>
        <linearGradient x1="50%" y1="0%" x2="50%" y2="100%" id="linearGradient-2">
            <stop stop-color="#D2E3E7" offset="0%"></stop>
            <stop stop-color="#ABB3B3" offset="100%"></stop>
        </linearGradient>
        <path d="M76.171875,1.39562275e-15 C90.625,1.39562275e-15 100,9.375 100,23.828125 L100,76.171875 C100,90.625 90.625,100 76.171875,100 L23.828125,100 C9.375,100 0,90.625 0,76.171875 L0,23.828125 C0,9.375 9.375,1.39562275e-15 23.828125,1.39562275e-15 L76.171875,1.39562275e-15 Z" id="path-3"></path>
        <linearGradient x1="4.01899136%" y1="3.47546729%" x2="96.1223323%" y2="93.3794539%" id="linearGradient-5">
            <stop stop-color="#00A663" offset="0%"></stop>
            <stop stop-color="#304149" offset="100%"></stop>
        </linearGradient>
        <polygon id="path-6" points="0.000104642314 25.4700911 60.991191 25.4700911 60.991191 2.84217094e-14 0.000104642314 2.84217094e-14 0.000104642314 25.4700911"></polygon>
    </defs>
    <g id="Group" filter="url(#filter-1)" stroke="none" stroke-width="1" fill="none" fill-rule="evenodd" transform="translate(118.000000, 0.000000)">
        <g id="Rectangle">
            <mask id="mask-4" fill="white">
                <use xlink:href="#path-3"></use>
            </mask>
            <use id="Mask" fill="url(#linearGradient-2)" xlink:href="#path-3"></use>
            <rect fill="url(#linearGradient-5)" mask="url(#mask-4)" x="0" y="0" width="100" height="100"></rect>
        </g>
        <g id="Page-1" transform="translate(16.111111, 36.666667)">
            <mask id="mask-7" fill="white">
                <use xlink:href="#path-6"></use>
            </mask>
            <g id="Clip-2"></g>
            <path d="M60.9912957,13.2568607 L56.7938832,-0.00018852459 L54.609161,3.78035792 C37.5428368,-4.46445082 26.74375,3.13078597 21.2529585,9.50543078 C6.56913052,10.890877 0.000104642314,25.3000209 0.000104642314,25.3000209 C0.000104642314,25.3000209 5.07211758,15.5197842 16.889374,15.9959135 C16.863632,16.0497477 16.8504471,16.0784454 16.8504471,16.0784454 C16.8504471,16.0784454 16.8653063,16.0499572 16.8950247,15.996123 C21.242285,16.1724982 26.5013984,17.7359954 32.7569159,21.6853761 L30.5805651,25.470112 L44.1468132,22.4784362 L39.9454243,9.21531239 L37.7627949,13.0119882 C32.3477645,10.3950574 27.564355,9.37304463 23.380546,9.39985701 C28.5925704,6.2052031 37.112129,4.58074954 49.6053748,12.4619153 L47.4229547,16.248327 L60.9912957,13.2568607 Z" id="Fill-1" fill="#FEFEFE" mask="url(#mask-7)"></path>
        </g>
    </g>
</svg>